<svg width="13" height="13" viewBox="0 0 13 13" fill="none" xmlns="http://www.w3.org/2000/svg">
<path d="M9.625 4.59188C9.395 4.69188 9.14812 4.76063 8.88875 4.79063C9.15375 4.63438 9.35625 4.38688 9.4525 4.09251C9.19998 4.23967 8.92445 4.34321 8.6375 4.39876C8.5168 4.27224 8.37159 4.17164 8.21073 4.10308C8.04987 4.03452 7.87673 3.99945 7.70188 4.00001C6.99375 4.00001 6.42 4.56563 6.42 5.26251C6.42 5.36126 6.43125 5.45751 6.45313 5.55001C5.9452 5.52589 5.44789 5.39616 4.99291 5.1691C4.53792 4.94204 4.13527 4.62263 3.81063 4.23126C3.6966 4.42319 3.63657 4.64238 3.63688 4.86563C3.63688 5.30313 3.86375 5.69063 4.2075 5.91626C4.00403 5.90988 3.80491 5.85571 3.62625 5.75813V5.77376C3.62818 6.06717 3.73175 6.35084 3.91932 6.57648C4.1069 6.80211 4.36688 6.95576 4.655 7.01126C4.46585 7.06127 4.26793 7.06853 4.07562 7.03251C4.15945 7.28492 4.3198 7.50498 4.53439 7.66211C4.74898 7.81925 5.00718 7.90567 5.27312 7.90938C4.81685 8.26098 4.25665 8.45094 3.68062 8.44938C3.5775 8.44938 3.47562 8.44313 3.375 8.43188C3.96279 8.80394 4.64435 9.00099 5.34 9.00001C7.69875 9.00001 8.98812 7.07626 8.98812 5.40751L8.98375 5.24376C9.23518 5.06706 9.45246 4.84618 9.625 4.59188Z" fill="#BA67D3"/>
<path d="M2.75 1.5C2.41848 1.5 2.10054 1.6317 1.86612 1.86612C1.6317 2.10054 1.5 2.41848 1.5 2.75V10.25C1.5 10.5815 1.6317 10.8995 1.86612 11.1339C2.10054 11.3683 2.41848 11.5 2.75 11.5H10.25C10.5815 11.5 10.8995 11.3683 11.1339 11.1339C11.3683 10.8995 11.5 10.5815 11.5 10.25V2.75C11.5 2.41848 11.3683 2.10054 11.1339 1.86612C10.8995 1.6317 10.5815 1.5 10.25 1.5H2.75ZM2.75 0.25H10.25C10.913 0.25 11.5489 0.513392 12.0178 0.982233C12.4866 1.45107 12.75 2.08696 12.75 2.75V10.25C12.75 10.913 12.4866 11.5489 12.0178 12.0178C11.5489 12.4866 10.913 12.75 10.25 12.75H2.75C2.08696 12.75 1.45107 12.4866 0.982233 12.0178C0.513392 11.5489 0.25 10.913 0.25 10.25V2.75C0.25 2.08696 0.513392 1.45107 0.982233 0.982233C1.45107 0.513392 2.08696 0.25 2.75 0.25Z" fill="#BA67D3"/>
</svg>
