<svg width="17" height="17" viewBox="0 0 17 17" fill="none" xmlns="http://www.w3.org/2000/svg">
<path d="M8.49984 11.8337C9.38389 11.8337 10.2317 11.4825 10.8569 10.8573C11.482 10.2322 11.8332 9.38438 11.8332 8.50033C11.8332 7.61627 11.482 6.76842 10.8569 6.1433C10.2317 5.51818 9.38389 5.16699 8.49984 5.16699C7.61578 5.16699 6.76794 5.51818 6.14281 6.1433C5.51769 6.76842 5.1665 7.61627 5.1665 8.50033C5.1665 9.38438 5.51769 10.2322 6.14281 10.8573C6.76794 11.4825 7.61578 11.8337 8.49984 11.8337Z" stroke="#BA67D3" stroke-width="1.5" stroke-linecap="round" stroke-linejoin="round"/>
<path d="M1 11.8333V5.16667C1 4.0616 1.43899 3.00179 2.22039 2.22039C3.00179 1.43899 4.0616 1 5.16667 1H11.8333C12.9384 1 13.9982 1.43899 14.7796 2.22039C15.561 3.00179 16 4.0616 16 5.16667V11.8333C16 12.9384 15.561 13.9982 14.7796 14.7796C13.9982 15.561 12.9384 16 11.8333 16H5.16667C4.0616 16 3.00179 15.561 2.22039 14.7796C1.43899 13.9982 1 12.9384 1 11.8333Z" stroke="#BA67D3" stroke-width="1.5"/>
<path d="M13.0835 3.92518L13.0918 3.91602" stroke="#BA67D3" stroke-width="1.5" stroke-linecap="round" stroke-linejoin="round"/>
</svg>
