<svg width="16" height="12" viewBox="0 0 16 12" fill="none" xmlns="http://www.w3.org/2000/svg">
<path d="M14.5 12H1.5C0.67 12 0 11.33 0 10.5V1.5C0 0.67 0.67 0 1.5 0H14.5C15.33 0 16 0.67 16 1.5V10.5C16 11.33 15.33 12 14.5 12ZM1.5 1C1.22 1 1 1.22 1 1.5V10.5C1 10.78 1.22 11 1.5 11H14.5C14.78 11 15 10.78 15 10.5V1.5C15 1.22 14.78 1 14.5 1H1.5Z" fill="black" fill-opacity="0.6"/>
<path d="M13.19 4.43012H12.44C12.21 4.43012 12.04 4.50012 11.93 4.73012L10.49 8.01012H11.51C11.51 8.01012 11.69 7.57012 11.72 7.47012H12.97C13.01 7.59012 13.09 8.00012 13.09 8.00012H14L13.19 4.44012V4.43012ZM12 6.73012C12.09 6.52012 12.39 5.73012 12.39 5.73012C12.39 5.75012 12.48 5.52012 12.51 5.40012L12.58 5.72012L12.81 6.76012H12V6.74012V6.73012ZM10.56 6.83012C10.56 7.57012 9.89 8.06012 8.86 8.06012C8.42 8.06012 8 7.97012 7.77 7.87012L7.91 7.06012L8.03 7.11012C8.35 7.25012 8.56 7.30012 8.94 7.30012C9.22 7.30012 9.52 7.19012 9.52 6.95012C9.52 6.79012 9.4 6.69012 9.01 6.51012C8.64 6.33012 8.15 6.05012 8.15 5.55012C8.15 4.85012 8.83 4.37012 9.8 4.37012C10.17 4.37012 10.48 4.44012 10.68 4.53012L10.54 5.30012L10.47 5.23012C10.29 5.16012 10.07 5.09012 9.73 5.09012C9.36 5.11012 9.19 5.27012 9.19 5.41012C9.19 5.57012 9.4 5.69012 9.73 5.85012C10.29 6.11012 10.55 6.41012 10.55 6.83012H10.56ZM2 4.46012L2.02 4.39012H3.53C3.74 4.39012 3.9 4.46012 3.95 4.69012L4.28 6.27012C3.95 5.43012 3.17 4.74012 2 4.46012Z" fill="black" fill-opacity="0.6"/>
<path d="M6.4002 4.43016L4.8702 7.99016H3.8302L2.9502 5.01016C3.5802 5.41016 4.1102 6.05016 4.3002 6.48016L4.4102 6.85016L5.3602 4.41016H6.4002V4.43016ZM6.8102 4.41016H7.7702L7.1602 7.99016H6.2002L6.8102 4.41016Z" fill="black" fill-opacity="0.6"/>
</svg>
