<svg width="42" height="42" viewBox="0 0 42 42" fill="none" xmlns="http://www.w3.org/2000/svg">
<circle cx="21" cy="21" r="20.5" stroke="#C1C1C1"/>
<path d="M31.7084 11.9964C31.596 11.8581 31.4573 11.7473 31.3015 11.6712C31.1457 11.5952 30.9764 11.5557 30.8051 11.5556H14.2942L14.0612 10.0682C14.0148 9.76986 13.871 9.49877 13.6552 9.30317C13.4395 9.10756 13.1659 9.00014 12.8831 9H10.1948C9.87792 9 9.57402 9.13462 9.34995 9.37425C9.12588 9.61388 9 9.93889 9 10.2778C9 10.6167 9.12588 10.9417 9.34995 11.1813C9.57402 11.4209 9.87792 11.5556 10.1948 11.5556H11.8711L14.0934 25.8207L14.1472 25.9791L14.2117 26.1721L14.3551 26.4008L14.4686 26.5439L14.6992 26.71L14.833 26.7931C14.972 26.8552 15.1209 26.8877 15.2715 26.8889H28.4155C28.7324 26.8889 29.0363 26.7543 29.2604 26.5146C29.4844 26.275 29.6103 25.95 29.6103 25.6111C29.6103 25.2722 29.4844 24.9472 29.2604 24.7076C29.0363 24.468 28.7324 24.3333 28.4155 24.3333H16.2847L16.0864 23.0556H29.6103C29.8978 23.0556 30.1757 22.9448 30.393 22.7434C30.6103 22.542 30.7524 22.2636 30.7932 21.9592L31.988 13.0148C32.0122 12.8335 31.9997 12.6488 31.9515 12.4731C31.9033 12.2975 31.8204 12.1349 31.7084 11.9964ZM29.4275 14.1111L29.087 16.6667H24.8311V14.1111H29.4275ZM23.6363 14.1111V16.6667H20.0519V14.1111H23.6363ZM23.6363 17.9444V20.5H20.0519V17.9444H23.6363ZM18.8571 14.1111V16.6667H15.2727L15.0959 16.705L14.692 14.1111H18.8571ZM15.2894 17.9444H18.8571V20.5H15.6873L15.2894 17.9444ZM24.8311 20.5V17.9444H28.915L28.5744 20.5H24.8311Z" fill="white"/>
<path d="M17.0652 31.9998C18.055 31.9998 18.8574 31.1417 18.8574 30.0832C18.8574 29.0246 18.055 28.1665 17.0652 28.1665C16.0753 28.1665 15.2729 29.0246 15.2729 30.0832C15.2729 31.1417 16.0753 31.9998 17.0652 31.9998Z" fill="white"/>
<path d="M27.8181 31.9998C28.8079 31.9998 29.6103 31.1417 29.6103 30.0832C29.6103 29.0246 28.8079 28.1665 27.8181 28.1665C26.8283 28.1665 26.0259 29.0246 26.0259 30.0832C26.0259 31.1417 26.8283 31.9998 27.8181 31.9998Z" fill="white"/>
</svg>
