<svg width="42" height="42" viewBox="0 0 42 42" fill="none" xmlns="http://www.w3.org/2000/svg">
<circle cx="21" cy="21" r="20.5" stroke="#C1C1C1"/>
<g clip-path="url(#clip0_322_34)">
<path d="M28.1668 25.7707C28.536 25.7709 28.8909 25.9131 29.1581 26.1678C29.4253 26.4226 29.5842 26.7703 29.602 27.1391C29.6197 27.5078 29.4949 27.8693 29.2534 28.1485C29.0119 28.4277 28.6723 28.6033 28.3048 28.639L28.1668 28.6457H12.8335C12.4643 28.6455 12.1094 28.5033 11.8422 28.2485C11.575 27.9938 11.4161 27.646 11.3984 27.2773C11.3806 26.9085 11.5054 26.5471 11.7469 26.2679C11.9884 25.9886 12.3281 25.813 12.6955 25.7774L12.8335 25.7707H28.1668ZM28.1668 19.0623C28.5481 19.0623 28.9137 19.2138 29.1833 19.4834C29.4529 19.753 29.6043 20.1186 29.6043 20.4998C29.6043 20.8811 29.4529 21.2467 29.1833 21.5163C28.9137 21.7859 28.5481 21.9373 28.1668 21.9373H12.8335C12.4522 21.9373 12.0866 21.7859 11.817 21.5163C11.5474 21.2467 11.396 20.8811 11.396 20.4998C11.396 20.1186 11.5474 19.753 11.817 19.4834C12.0866 19.2138 12.4522 19.0623 12.8335 19.0623H28.1668ZM28.1668 12.354C28.5481 12.354 28.9137 12.5055 29.1833 12.775C29.4529 13.0446 29.6043 13.4103 29.6043 13.7915C29.6043 14.1728 29.4529 14.5384 29.1833 14.808C28.9137 15.0776 28.5481 15.229 28.1668 15.229H12.8335C12.4522 15.229 12.0866 15.0776 11.817 14.808C11.5474 14.5384 11.396 14.1728 11.396 13.7915C11.396 13.4103 11.5474 13.0446 11.817 12.775C12.0866 12.5055 12.4522 12.354 12.8335 12.354H28.1668Z" fill="white"/>
</g>
<defs>
<clipPath id="clip0_322_34">
<rect width="23" height="23" fill="white" transform="translate(9 9)"/>
</clipPath>
</defs>
</svg>
