<svg width="42" height="42" viewBox="0 0 42 42" fill="none" xmlns="http://www.w3.org/2000/svg">
<circle cx="21" cy="21" r="20.5" stroke="#C1C1C1"/>
<path d="M20.5 35L18.8325 33.3706C16.8967 31.4696 15.2962 29.8297 14.0312 28.451C12.7662 27.0722 11.76 25.8343 11.0125 24.7371C10.265 23.6408 9.7429 22.6331 9.4462 21.7139C9.1495 20.7947 9.00077 19.8547 9 18.8937C9 16.9301 9.60375 15.2902 10.8113 13.9741C12.0187 12.658 13.5233 12 15.325 12C16.3217 12 17.2704 12.2298 18.1713 12.6894C19.0721 13.149 19.8483 13.7965 20.5 14.6322C21.1517 13.7965 21.9279 13.149 22.8287 12.6894C23.7296 12.2298 24.6783 12 25.675 12C27.4767 12 28.9812 12.658 30.1887 13.9741C31.3962 15.2902 32 16.9301 32 18.8937C32 19.8547 31.8513 20.7947 31.5538 21.7139C31.2563 22.6331 30.7342 23.6408 29.9875 24.7371C29.24 25.8343 28.2337 27.0722 26.9687 28.451C25.7037 29.8297 24.1033 31.4696 22.1675 33.3706L20.5 35ZM20.5 31.6158C22.34 29.8193 23.8542 28.2784 25.0425 26.9932C26.2308 25.7081 27.17 24.5909 27.86 23.6416C28.55 22.6907 29.0292 21.8442 29.2975 21.1022C29.5658 20.3602 29.7 19.624 29.7 18.8937C29.7 17.6403 29.3167 16.5958 28.55 15.7602C27.7833 14.9246 26.825 14.5068 25.675 14.5068C24.7742 14.5068 23.9404 14.7834 23.1737 15.3366C22.4071 15.8897 21.88 16.595 21.5925 17.4523H19.4075C19.12 16.5958 18.5929 15.8906 17.8263 15.3366C17.0596 14.7826 16.2258 14.506 15.325 14.5068C14.175 14.5068 13.2167 14.9246 12.45 15.7602C11.6833 16.5958 11.3 17.6403 11.3 18.8937C11.3 19.6249 11.4342 20.3615 11.7025 21.1035C11.9708 21.8455 12.45 22.6916 13.14 23.6416C13.83 24.5917 14.7692 25.7093 15.9575 26.9945C17.1458 28.2797 18.66 29.8201 20.5 31.6158Z" fill="white"/>
</svg>
