<svg width="50" height="50" viewBox="0 0 50 50" fill="none" xmlns="http://www.w3.org/2000/svg">
<g clip-path="url(#clip0_332_52)">
<path d="M31.2498 8.3335C32.3549 8.3335 33.4147 8.77248 34.1961 9.55388C34.9775 10.3353 35.4165 11.3951 35.4165 12.5002V14.5835H38.5832C39.2077 14.5836 39.8242 14.724 40.3871 14.9945C40.95 15.265 41.4449 15.6585 41.8353 16.146L44.9186 20.0022C45.5105 20.7412 45.833 21.6597 45.8332 22.6064V31.2502C45.8332 32.3552 45.3942 33.415 44.6128 34.1964C43.8314 34.9778 42.7716 35.4168 41.6665 35.4168C41.6665 37.0744 41.008 38.6641 39.8359 39.8362C38.6638 41.0083 37.0741 41.6668 35.4165 41.6668C33.7589 41.6668 32.1692 41.0083 30.9971 39.8362C29.825 38.6641 29.1665 37.0744 29.1665 35.4168H20.8332C20.8332 36.2376 20.6715 37.0503 20.3574 37.8086C20.0433 38.5669 19.583 39.2559 19.0026 39.8362C18.4222 40.4166 17.7332 40.877 16.9749 41.1911C16.2167 41.5052 15.4039 41.6668 14.5832 41.6668C13.7624 41.6668 12.9497 41.5052 12.1914 41.1911C11.4331 40.877 10.7441 40.4166 10.1638 39.8362C9.58339 39.2559 9.12302 38.5669 8.80892 37.8086C8.49483 37.0503 8.33317 36.2376 8.33317 35.4168C7.2281 35.4168 6.16829 34.9778 5.38689 34.1964C4.60549 33.415 4.1665 32.3552 4.1665 31.2502V12.5002C4.1665 11.3951 4.60549 10.3353 5.38689 9.55388C6.16829 8.77248 7.2281 8.3335 8.33317 8.3335H31.2498ZM14.5832 33.3335C14.0306 33.3335 13.5007 33.553 13.11 33.9437C12.7193 34.3344 12.4998 34.8643 12.4998 35.4168C12.4998 35.9694 12.7193 36.4993 13.11 36.89C13.5007 37.2807 14.0306 37.5002 14.5832 37.5002C15.1357 37.5002 15.6656 37.2807 16.0563 36.89C16.447 36.4993 16.6665 35.9694 16.6665 35.4168C16.6665 34.8643 16.447 34.3344 16.0563 33.9437C15.6656 33.553 15.1357 33.3335 14.5832 33.3335ZM35.4165 33.3335C34.864 33.3335 34.3341 33.553 33.9434 33.9437C33.5527 34.3344 33.3332 34.8643 33.3332 35.4168C33.3332 35.9694 33.5527 36.4993 33.9434 36.89C34.3341 37.2807 34.864 37.5002 35.4165 37.5002C35.969 37.5002 36.4989 37.2807 36.8896 36.89C37.2803 36.4993 37.4998 35.9694 37.4998 35.4168C37.4998 34.8643 37.2803 34.3344 36.8896 33.9437C36.4989 33.553 35.969 33.3335 35.4165 33.3335ZM31.2498 12.5002H8.33317V31.2502H9.92484C10.4883 30.6187 11.1742 30.1085 11.9409 29.7503C12.7077 29.3922 13.5392 29.1936 14.3851 29.1667C15.2309 29.1398 16.0734 29.2852 16.8613 29.5939C17.6492 29.9026 18.3662 30.3683 18.9686 30.9627L19.2415 31.2502H30.7582L30.9978 30.9981L31.2498 30.7585V12.5002ZM38.5832 18.7502H35.4165V29.1668C37.1248 29.1668 38.6728 29.8543 39.8019 30.9627L40.0748 31.2502H41.6665V22.6043L38.5832 18.7502Z" fill="#BA67D3"/>
</g>
<defs>
<clipPath id="clip0_332_52">
<rect width="50" height="50" fill="white"/>
</clipPath>
</defs>
</svg>
