<svg width="28" height="20" viewBox="0 0 28 20" fill="none" xmlns="http://www.w3.org/2000/svg">
<path d="M3 0C1.355 0 0 1.355 0 3V17C0 18.645 1.355 20 3 20H25C26.645 20 28 18.645 28 17V3C28 1.355 26.645 0 25 0H3ZM3 2H25C25.565 2 26 2.435 26 3V17C26 17.565 25.565 18 25 18H3C2.435 18 2 17.565 2 17V3C2 2.435 2.435 2 3 2ZM10 3C6.146 3 3 6.146 3 10C3 13.854 6.146 17 10 17C11.4303 17.0053 12.8273 16.5688 14 15.75C15.1728 16.5686 16.5698 17.0052 18 17C21.854 17 25 13.854 25 10C25 6.146 21.854 3 18 3C16.512 3 15.13 3.458 14 4.25C12.8273 3.43122 11.4303 2.99465 10 3ZM10 5C11.282 5 12.43 5.496 13.313 6.28C12.8971 6.79596 12.5693 7.37713 12.343 8H14.563C14.703 8.318 14.835 8.65 14.906 9H12.094C12.0342 9.33004 12.0028 9.6646 12 10C12 10.342 12.04 10.674 12.094 11H14.906C14.836 11.35 14.702 11.682 14.563 12H12.343C12.568 12.63 12.903 13.205 13.313 13.72C12.43 14.503 11.283 15 10 15C7.227 15 5 12.773 5 10C5 7.227 7.227 5 10 5ZM18 5C20.774 5 23 7.226 23 10C23 12.774 20.774 15 18 15C17.1204 14.9964 16.2576 14.759 15.5 14.312C16.473 13.0855 17.0017 11.5656 17 10C17 8.37 16.44 6.88 15.5 5.687C16.2577 5.2404 17.1205 5.0033 18 5Z" fill="black" fill-opacity="0.6"/>
</svg>
