<svg width="55" height="43" viewBox="0 0 55 43" fill="none" xmlns="http://www.w3.org/2000/svg">
<path d="M12.1439 22.6693C11.5655 14.3861 17.6319 7.03559 25.9205 6.12419C29.1753 5.75915 32.4609 6.45624 35.2871 8.11145L38.4158 3.96382C34.5342 1.53389 29.9444 0.48925 25.3935 0.999916C14.2895 2.21773 6.17379 12.1132 7.03936 23.2315L0.901211 23.9036L11.1439 33.1451L20.2798 21.7759L12.1439 22.6693ZM43.8579 9.85442L34.722 21.2236L42.8564 20.3322C43.4316 28.6192 37.3652 35.9697 29.0797 36.8773C25.8249 37.243 22.5391 36.5459 19.7131 34.89L16.586 39.0357C20.468 41.4651 25.0573 42.5108 29.6087 42.0031C40.7139 40.7798 48.8296 30.8844 47.9609 19.7699L54.1022 19.0939L43.8579 9.85442Z" fill="#BA67D3"/>
</svg>
